<mxfile host="65bd71144e">
    <diagram id="P0ckGwWeute84OkEysH_" name="Page-1">
        <mxGraphModel dx="832" dy="563" grid="1" gridSize="10" guides="1" tooltips="1" connect="1" arrows="1" fold="1" page="1" pageScale="1" pageWidth="850" pageHeight="1100" math="0" shadow="0">
            <root>
                <mxCell id="0"/>
                <mxCell id="1" parent="0"/>
                <mxCell id="16" value="&lt;div style=&quot;&quot;&gt;&lt;b style=&quot;background-color: transparent;&quot;&gt;Region: Distrito&amp;nbsp;&lt;/b&gt;&lt;/div&gt;&lt;div&gt;&lt;b&gt;metropolitano&lt;/b&gt;&lt;div&gt;&lt;b&gt;&amp;nbsp;de Quito&lt;/b&gt;&lt;/div&gt;&lt;/div&gt;" style="shape=mxgraph.ibm.box;prType=region;fontStyle=0;verticalAlign=top;align=center;spacingLeft=32;spacingTop=4;fillColor=#d5e8d4;rounded=0;whiteSpace=wrap;html=1;strokeColor=#82b366;strokeWidth=2;dashed=0;container=1;spacing=-4;collapsible=0;expand=0;recursiveResize=0;" vertex="1" parent="1">
                    <mxGeometry x="60" y="185" width="200" height="200" as="geometry"/>
                </mxCell>
                <mxCell id="13" value="" style="line;strokeWidth=1;direction=south;html=1;dashed=1;dashPattern=20 20;" vertex="1" parent="16">
                    <mxGeometry x="95" y="50" width="10" height="150" as="geometry"/>
                </mxCell>
                <mxCell id="14" value="Sector &#xa;censal 1" style="text;align=center;" vertex="1" parent="16">
                    <mxGeometry x="20" y="60" width="70" height="40" as="geometry"/>
                </mxCell>
                <mxCell id="15" value="Sector &#xa;censal 2" style="text;align=center;" vertex="1" parent="16">
                    <mxGeometry x="110" y="60" width="80" height="40" as="geometry"/>
                </mxCell>
                <mxCell id="19" value="" style="line;strokeWidth=1;direction=south;html=1;dashed=1;dashPattern=20 20;rotation=90;" vertex="1" parent="16">
                    <mxGeometry x="95" y="40" width="10" height="150" as="geometry"/>
                </mxCell>
                <mxCell id="20" value="Sector &#xa;censal N" style="text;align=center;" vertex="1" parent="16">
                    <mxGeometry x="15" y="135" width="80" height="40" as="geometry"/>
                </mxCell>
                <mxCell id="3" value="" style="shape=step;perimeter=stepPerimeter;whiteSpace=wrap;html=1;fixedSize=1;size=10;direction=south;fillColor=#CCCC00;strokeColor=none;rounded=0;" vertex="1" parent="1">
                    <mxGeometry x="270" y="170" width="70" height="80" as="geometry"/>
                </mxCell>
                <mxCell id="4" value="" style="shape=step;perimeter=stepPerimeter;whiteSpace=wrap;html=1;fixedSize=1;size=10;direction=south;rounded=0;fillColor=#f5f5f5;fontColor=#333333;strokeColor=#666666;" vertex="1" parent="1">
                    <mxGeometry x="270" y="250" width="70" height="80" as="geometry"/>
                </mxCell>
                <mxCell id="5" value="" style="shape=step;perimeter=stepPerimeter;whiteSpace=wrap;html=1;fixedSize=1;size=10;direction=south;fillColor=#FF0080;strokeColor=none;rounded=0;" vertex="1" parent="1">
                    <mxGeometry x="270" y="330" width="70" height="80" as="geometry"/>
                </mxCell>
                <mxCell id="8" value="&lt;font style=&quot;&quot;&gt;&lt;font style=&quot;font-size: 12px;&quot; color=&quot;#F2931E&quot;&gt;&lt;b&gt;CAE &amp;lt; 1&lt;/b&gt;&lt;/font&gt;&lt;br&gt;&lt;br&gt;&lt;font size=&quot;1&quot;&gt;La unidad geográfica tiene un acceso menor que la media regional&lt;/font&gt;&lt;/font&gt;" style="rounded=1;strokeColor=none;fillColor=#EEEEEE;align=center;arcSize=12;verticalAlign=top;whiteSpace=wrap;html=1;fontSize=12;" vertex="1" parent="1">
                    <mxGeometry x="370" y="170" width="280" height="70" as="geometry"/>
                </mxCell>
                <mxCell id="9" value="&lt;font style=&quot;font-size: 10px&quot;&gt;&lt;b style=&quot;font-size: 12px;&quot;&gt;CAE = 1&lt;/b&gt;&lt;br&gt;&lt;br&gt;&lt;span style=&quot;color: rgb(63, 63, 63); font-size: x-small;&quot;&gt;La unidad geográfica tiene exactamente el acceso medio a un proveedor de asistencia sanitaria para esa región&lt;/span&gt;&lt;/font&gt;" style="rounded=1;strokeColor=none;fillColor=#EEEEEE;align=center;arcSize=12;verticalAlign=top;whiteSpace=wrap;html=1;fontSize=12;" vertex="1" parent="1">
                    <mxGeometry x="370" y="250" width="280" height="70" as="geometry"/>
                </mxCell>
                <mxCell id="10" value="&lt;font style=&quot;&quot;&gt;&lt;font style=&quot;font-size: 12px;&quot; color=&quot;#23445D&quot;&gt;&lt;b&gt;CAE &amp;gt; 1&lt;/b&gt;&lt;/font&gt;&lt;br&gt;&lt;br&gt;&lt;font size=&quot;1&quot;&gt;La unidad geográfica tiene un acceso mayor que la media regional&lt;/font&gt;&lt;/font&gt;" style="rounded=1;strokeColor=none;fillColor=#EEEEEE;align=center;arcSize=12;verticalAlign=top;whiteSpace=wrap;html=1;fontSize=12;" vertex="1" parent="1">
                    <mxGeometry x="370" y="330" width="280" height="70" as="geometry"/>
                </mxCell>
            </root>
        </mxGraphModel>
    </diagram>
</mxfile>